<svg xmlns="http://www.w3.org/2000/svg" viewBox="0 0 6.35 6.35" class="svg fediverse-small" width="16" height="16" aria-hidden="true"><path d="M3.59 1.16a.204.204 0 0 0-.24.16.204.204 0 0 0 .158.24 1.63 1.63 0 0 1 .832.45 1.64 1.64 0 0 1 .353 1.806.204.204 0 0 0 .11.268.204.204 0 0 0 .265-.11A2.055 2.055 0 0 0 3.59 1.16M1.547 2.266a.204.204 0 0 0-.266.109 2.054 2.054 0 0 0 1.48 2.814.204.204 0 0 0 .241-.158.204.204 0 0 0-.16-.242 1.63 1.63 0 0 1-.832-.45 1.64 1.64 0 0 1-.483-1.163c0-.228.046-.446.13-.643a.204.204 0 0 0-.11-.267" style="stroke-linecap:round" transform="matrix(1.28704 0 0 1.31102 -.911 -.987)"/><path d="M1.72.264C1.065.264.53.802.53 1.456c0 .655.535 1.19 1.19 1.19s1.19-.535 1.19-1.19S2.373.264 1.72.264m0 .53c.368 0 .661.294.661.662a.66.66 0 0 1-.661.662.66.66 0 0 1-.662-.662c0-.368.293-.661.662-.661M4.63 3.705c-.654 0-1.19.535-1.19 1.19s.536 1.19 1.19 1.19c.655 0 1.19-.536 1.19-1.19 0-.655-.535-1.19-1.19-1.19m0 .527c.37 0 .661.294.661.663a.657.657 0 0 1-.66.662.66.66 0 0 1-.662-.662c0-.369.293-.663.662-.663"/></svg>